<?xml version="1.0" encoding="UTF-8"?>
<svg width="512" height="512" viewBox="0 0 512 512" fill="none" xmlns="http://www.w3.org/2000/svg">
  <!-- Cloudflare logo adapted for marketplace -->
  <defs>
    <linearGradient id="cloudflareGradient" x1="0%" y1="0%" x2="100%" y2="100%">
      <stop offset="0%" style="stop-color:#f38020;stop-opacity:1" />
      <stop offset="100%" style="stop-color:#f6821f;stop-opacity:1" />
    </linearGradient>
  </defs>
  
  <!-- Background circle -->
  <circle cx="256" cy="256" r="256" fill="#fff"/>
  
  <!-- Cloudflare cloud symbol -->
  <g transform="translate(64, 180)">
    <!-- Main cloud shape -->
    <path d="M320 120c0-53.02-42.98-96-96-96s-96 42.98-96 96c0 4.48.32 8.88.96 13.2C116.32 139.8 108 151.12 108 164c0 15.44 12.56 28 28 28h200c22.09 0 40-17.91 40-40 0-19.93-14.58-36.41-33.64-39.32C339.68 135.28 320 127.84 320 120z" fill="url(#cloudflareGradient)"/>
    
    <!-- Additional cloud detail -->
    <circle cx="160" cy="100" r="24" fill="url(#cloudflareGradient)" opacity="0.8"/>
    <circle cx="280" cy="110" r="20" fill="url(#cloudflareGradient)" opacity="0.6"/>
  </g>
  
  <!-- Cloudflare text (simplified) -->
  <text x="256" y="380" font-family="Arial, sans-serif" font-size="42" font-weight="bold" text-anchor="middle" fill="#f38020">CLOUDFLARE</text>
</svg>